<svg id="Layer_1" data-name="Layer 1" xmlns="http://www.w3.org/2000/svg" viewBox="0 0 425.63676 426.3207"><defs><style>.cls-1{fill:#fff;}</style></defs><path d="M227.88574.14632c7.65593,1.1136,15.36216,1.95907,22.95977,3.38366,55.66678,10.43784,100.35193,38.61948,134.13588,83.93878,21.3736,28.67155,34.19013,61.01038,39.22126,96.37209,3.08876,21.70953,2.19714,43.37943-.84092,65.09505C412.738,324.87346,350.43348,397.01721,266.1126,419.65367c-88.252,23.69183-188.66456-15.59656-236.927-99.28626A209.34314,209.34314,0,0,1,1.26285,231.57028a20.32847,20.32847,0,0,0-.77456-3.19355V198.39025c.64415-4.92335,1.18795-9.86225,1.94852-14.76756,5.41884-34.94877,18.17586-66.93137,39.24355-95.40552C76.53771,41.10552,123.683,13.7757,180.70246,2.60671,186.37762,1.49506,192.16433.95283,197.89927.14632ZM205.3318,21.65637a183.09565,183.09565,0,0,0-79.36048,21.7305C87.97784,63.98638,59.10486,93.1278,40.3116,131.80968,21.77708,169.959,17.06441,210.39723,25.9374,251.76576c13.00843,60.64925,47.69986,105.375,103.00779,133.4633,36.43877,18.50555,75.25811,23.87572,115.60161,17.37338a179.71281,179.71281,0,0,0,57.766-19.68486c38.81143-21.07567,67.64278-51.32758,86.31374-91.07986a164.11425,164.11425,0,0,0,15.51033-61.816c1.49-28.38744-1.33472-55.883-11.09973-82.57588C365.33614,71.72456,293.52511,21.63527,205.3318,21.65637Z" transform="translate(-0.48829 -0.14632)"/><path class="cls-1" d="M205.3318,21.65637c88.19331-.0211,160.00434,50.06819,187.70535,125.78945,9.765,26.6929,12.58969,54.18844,11.09973,82.57588a164.11425,164.11425,0,0,1-15.51033,61.816c-18.671,39.75228-47.50231,70.00419-86.31374,91.07986a179.71281,179.71281,0,0,1-57.766,19.68486c-40.3435,6.50234-79.16284,1.13217-115.60161-17.37338C73.63726,357.14071,38.94583,312.415,25.9374,251.76576c-8.873-41.36853-4.16032-81.80675,14.3742-119.95608,18.79326-38.68188,47.66624-67.8233,85.65972-88.42281A183.09565,183.09565,0,0,1,205.3318,21.65637Zm8.42767,228.69392c-1.22155-1.36713-2.05658-2.28553-2.87418-3.21915q-31.25934-35.69553-62.52016-71.38977c-5.03093-5.74006-11.52758-6.627-16.364-2.30948-4.76662,4.25515-4.76256,10.66688.111,16.24863q36.26829,41.538,72.58173,83.03662c5.62154,6.4207,12.49484,6.359,18.15551-.10959q36.315-41.49774,72.58385-83.03582c4.81233-5.51185,4.73422-12.074-.07306-16.238-4.79482-4.15319-11.24078-3.31394-16.08815,2.203q-17.3079,19.69857-34.55035,39.45465C234.50169,226.66493,224.27951,238.33656,213.75947,250.35029Z" transform="translate(-0.48829 -0.14632)"/><path d="M213.75947,250.35029c10.52-12.01373,20.74222-23.68536,30.9622-35.35889Q261.99441,195.262,279.272,175.53675c4.84737-5.51692,11.29333-6.35617,16.08815-2.203,4.80728,4.164,4.88539,10.72611.07306,16.238q-36.2674,41.53931-72.58385,83.03582c-5.66067,6.46854-12.534,6.53029-18.15551.10959q-36.32478-41.48863-72.58173-83.03662c-4.8736-5.58175-4.87766-11.99348-.111-16.24863,4.83645-4.31755,11.3331-3.43058,16.364,2.30948q31.27424,35.68248,62.52016,71.38977C211.70289,248.06476,212.53792,248.98316,213.75947,250.35029Z" transform="translate(-0.48829 -0.14632)"/></svg>