<svg id="Layer_1" data-name="Layer 1" xmlns="http://www.w3.org/2000/svg" viewBox="0 0 946.12766 927.82979"><defs><style>.cls-1{fill:#84c77c;}.cls-2{fill:#231f20;}</style></defs><path class="cls-1" d="M473.06389,870.68742A406.8926,406.8926,0,0,1,314.745,89.0883a406.89085,406.89085,0,0,1,316.6377,749.6538A404.18417,404.18417,0,0,1,473.06389,870.68742Z"/><path class="cls-2" d="M473.06382,107.14239a356.89308,356.89308,0,0,1,138.84143,685.5493A356.891,356.891,0,0,1,334.22239,135.13811a354.4514,354.4514,0,0,1,138.84143-27.99572m0-100c-252.26857,0-456.77251,204.50392-456.77251,456.77249S220.79525,920.68742,473.06382,920.68742s456.77247-204.504,456.77247-456.77253S725.33239,7.1424,473.06382,7.1424Z"/><text/></svg>