<svg id="Layer_1" data-name="Layer 1" xmlns="http://www.w3.org/2000/svg" viewBox="0 0 383 389"><path d="M247.9657,4c.85318.43643,1.68364.92606,2.56305,1.301a18.00581,18.00581,0,0,1,10.83713,20.39347c-1.51166,8.1684-8.96746,14.21162-17.76165,14.21528q-83.85057.03492-167.70116.02077c-12.06574.00387-21.29578,6.42641-24.38751,17.131a30.97006,30.97006,0,0,0-1.14767,8.47q-.08772,130.05689-.038,260.11389c.00369,15.59317,10.19216,25.73955,25.81187,25.74536q83.6634.031,167.32682.00918c7.44259.00009,13.02131,3.32871,16.30822,9.90653a17.13576,17.13576,0,0,1-1.58988,18.71924,16.71737,16.71737,0,0,1-14.068,7.26368c-57.52245.017-115.04547.14883-172.56715-.06356-27.11646-.10007-52.67929-23.01676-56.36753-49.89946a85.49041,85.49041,0,0,1-.78672-11.54276q-.0649-130.05695-.03-260.11391C14.3711,34.0539,34.285,10.2987,65.45986,4.63892A5.242,5.242,0,0,0,66.75337,4Z"/><path d="M284.59683,183.70629c-1.51666-1.60394-2.40727-2.59248-3.34662-3.53231-16.93669-16.94489-33.94342-33.82038-50.79645-50.84794-10.17193-10.27727-6.157-26.73946,7.40516-30.48135,6.91115-1.90683,13.04071-.07961,18.14958,5.05184q12.41338,12.46827,24.88145,24.882,29.25172,29.24686,58.49976,58.49743c9.3449,9.351,9.35667,19.41069.01657,28.75445q-41.41735,41.43362-82.86951,82.83242c-8.43871,8.41749-20.68665,8.195-27.63584-.34667-6.07386-7.46568-5.31792-17.65856,1.993-24.99673q24.43908-24.5301,48.98135-48.95742c1.39819-1.39319,3.04972-2.53224,4.58354-3.78939q-.28872-.57874-.5774-1.15751h-3.85269q-68.13712-.00037-136.27421-.00944c-9.40467-.004-17.12911-6.60889-18.24356-15.46988a17.98009,17.98009,0,0,1,13.71436-19.94637,23.44764,23.44764,0,0,1,5.557-.46438q67.38765-.03594,134.77532-.01877Z"/></svg>